<svg width="950" height="127" viewBox="0 0 950 127" fill="none" xmlns="http://www.w3.org/2000/svg">
<rect width="950" height="127" fill="black"/>
<path d="M304.324 53.9199C303.609 53.9668 302.783 54.0371 301.846 54.1309C301.717 54.1309 301.635 54.1016 301.6 54.043C301.564 53.9844 301.541 53.8848 301.529 53.7441L301.283 50.4746C301.295 50.334 301.33 50.2461 301.389 50.2109C301.459 50.1641 301.564 50.1289 301.705 50.1055C302.865 50.082 303.873 50.0586 304.729 50.0352C305.596 50.0117 306.346 49.9941 306.979 49.9824C307.623 49.9707 308.168 49.9648 308.613 49.9648C309.07 49.9531 309.463 49.9473 309.791 49.9473C310.131 49.9355 310.43 49.9297 310.688 49.9297H311.426C314.918 49.9297 317.508 50.8438 319.195 52.6719C321.152 54.7812 322.131 58.2852 322.131 63.1836C322.131 67.8125 321.141 71.3633 319.16 73.8359C317.273 76.168 314.666 77.334 311.338 77.334C307.846 77.334 304.658 77.1875 301.775 76.8945C301.576 76.8828 301.471 76.7422 301.459 76.4727L301.67 73.3613C301.693 73.1738 301.787 73.0625 301.951 73.0273L303.867 73.168L304.324 53.9199ZM307.963 73.3965C308.947 73.4668 309.662 73.502 310.107 73.502H311.232C313.611 73.502 315.357 72.6758 316.471 71.0234C317.596 69.3711 318.158 66.9043 318.158 63.623C318.158 58.1855 316.852 54.9746 314.238 53.9902C313.395 53.6738 312.633 53.5156 311.953 53.5156C310.781 53.5156 309.521 53.5566 308.174 53.6387L307.963 73.3965ZM334.945 76.7715C334.922 77.0059 334.781 77.123 334.523 77.123L325.664 77.0703C325.465 77.0703 325.359 76.9297 325.348 76.6484L325.734 73.1855C325.758 72.998 325.852 72.8867 326.016 72.8516L328.248 73.0098V54.0254C327.381 54.0957 326.771 54.1309 326.42 54.1309C326.068 54.1309 325.846 54.0898 325.752 54.0078C325.67 53.9141 325.617 53.791 325.594 53.6387L325.242 50.7559C325.266 50.4395 325.406 50.2578 325.664 50.2109C329.18 49.8477 332.654 49.666 336.088 49.666C340.881 49.666 343.863 51.1953 345.035 54.2539C345.445 55.2969 345.65 56.4629 345.65 57.752C345.65 59.0293 345.498 60.1016 345.193 60.9688C344.9 61.8242 344.484 62.5625 343.945 63.1836C342.867 64.4258 341.396 65.2285 339.533 65.5918L344.139 72.8691L347.25 72.6055C347.637 72.6289 347.83 72.8281 347.83 73.2031L347.848 75.9629C347.848 76.584 347.631 76.9062 347.197 76.9297L342.205 77.0527C341.971 77.0527 341.789 76.9355 341.66 76.7012L335.719 65.7852C334.383 65.7617 333.182 65.6973 332.115 65.5918L332.168 73.1328H334.541C334.729 73.1328 334.822 73.2441 334.822 73.4668L334.945 76.7715ZM336.756 53.3574C335.818 53.3574 334.236 53.4688 332.01 53.6914L332.08 62.4453C333.1 62.5039 334.16 62.5332 335.262 62.5332C336.363 62.5332 337.271 62.457 337.986 62.3047C338.713 62.1406 339.34 61.8828 339.867 61.5312C341.004 60.7695 341.572 59.5918 341.572 57.998C341.572 56.3926 341.168 55.2207 340.359 54.4824C339.562 53.7324 338.361 53.3574 336.756 53.3574ZM349.008 76.9648C348.75 76.9414 348.621 76.7539 348.621 76.4023V73.4668C348.621 73.2793 348.656 73.1504 348.727 73.0801C348.809 73.0098 348.949 72.9688 349.148 72.957L350.766 73.0273L357.727 50.457C357.797 50.2344 357.938 50.1113 358.148 50.0879L362.139 49.9473C362.35 49.959 362.496 50.0938 362.578 50.3516L370.172 72.9043L371.771 72.8516C372.1 72.875 372.264 73.0625 372.264 73.4141V76.1914C372.264 76.3906 372.223 76.5195 372.141 76.5781C372.059 76.6367 371.918 76.666 371.719 76.666H363.58C363.369 76.666 363.246 76.6191 363.211 76.5254C363.176 76.4316 363.158 76.3027 363.158 76.1387L363.51 73.5723C363.533 73.373 363.58 73.2441 363.65 73.1855C363.721 73.1152 363.85 73.0801 364.037 73.0801L366.041 73.0273L364.529 68.3516L355.828 68.1758L354.404 73.2734L356.531 73.0625C356.672 73.0625 356.766 73.0918 356.812 73.1504C356.871 73.209 356.912 73.3145 356.936 73.4668L357.199 76.1387C357.176 76.3379 357.123 76.4727 357.041 76.543C356.971 76.6133 356.848 76.6543 356.672 76.666L349.008 76.9648ZM356.654 65.1875H363.492L359.801 53.8848L356.654 65.1875ZM373.494 54.2363C373.166 54.2363 373.002 54.0488 373.002 53.6738L373.178 50.7207C373.189 50.5215 373.23 50.3984 373.301 50.3516C373.383 50.293 373.523 50.2578 373.723 50.2461L381.861 49.8945C382.061 49.9062 382.178 49.959 382.213 50.0527C382.248 50.1348 382.271 50.2578 382.283 50.4219L382.459 53.3398C382.436 53.5391 382.389 53.6738 382.318 53.7441C382.248 53.8027 382.119 53.832 381.932 53.832L379.102 53.7969L383.074 71.3223L387.293 50.791C387.328 50.5566 387.469 50.4336 387.715 50.4219L390.369 50.2285C390.615 50.252 390.762 50.3867 390.809 50.6328L395.432 71.3926L398.93 53.7441L396.223 53.6738C396.082 53.6738 395.982 53.6445 395.924 53.5859C395.877 53.5273 395.842 53.4219 395.818 53.2695L395.906 50.4219C395.93 50.0938 396.105 49.918 396.434 49.8945L404.273 50.123C404.531 50.1465 404.66 50.334 404.66 50.6855L404.484 53.4453C404.473 53.6328 404.432 53.7617 404.361 53.832C404.291 53.9023 404.156 53.9434 403.957 53.9551L402.27 53.8848L396.785 76.6309C396.738 76.8535 396.598 76.9766 396.363 77L393.604 77.1406C393.357 77.1172 393.211 76.9824 393.164 76.7363L388.822 58.0156L384.727 76.6309C384.68 76.8535 384.539 76.9766 384.305 77L381.369 77.1406C381.158 77.1289 381.012 76.9941 380.93 76.7363L375.146 54.0781L373.494 54.2363ZM415.33 73.3086C415.518 73.3086 415.611 73.4199 415.611 73.6426L415.559 76.7715C415.559 77.0059 415.418 77.123 415.137 77.123L406.98 76.8945C406.781 76.8945 406.676 76.7539 406.664 76.4727L406.523 73.3613C406.547 73.1738 406.641 73.0625 406.805 73.0273L409.248 73.2031L409.107 54.0605L406.699 54.043C406.488 54.043 406.383 53.9141 406.383 53.6562L406.664 50.5625C406.676 50.4219 406.711 50.334 406.77 50.2988C406.84 50.252 406.945 50.2168 407.086 50.1934L415.295 50.5098C415.424 50.5215 415.506 50.5566 415.541 50.6152C415.576 50.6621 415.6 50.7617 415.611 50.9141L415.488 53.709C415.465 53.9668 415.33 54.0957 415.084 54.0957H413.027L412.975 73.3086H415.33ZM442.91 53.709C442.91 53.9668 442.775 54.0957 442.506 54.0957L440.273 54.043L440.238 76.3145C440.238 76.6309 440.098 76.8008 439.816 76.8242L435.562 77.0527C435.41 77.0527 435.275 76.9238 435.158 76.666L424.805 53.7266L425.227 72.957L427.986 72.7812C428.15 72.7812 428.244 72.8926 428.268 73.1152L428.566 76.5957C428.543 76.8301 428.402 76.9473 428.145 76.9473L419.637 76.8945C419.473 76.8945 419.367 76.7539 419.32 76.4727L419.004 73.5371C419.027 73.3145 419.121 73.2031 419.285 73.2031L422.045 73.1328V54.1309L418.828 54.2715C418.699 54.2598 418.617 54.2305 418.582 54.1836C418.559 54.125 418.535 54.0254 418.512 53.8848L418.705 50.791C418.729 50.5684 418.869 50.4453 419.127 50.4219L426.861 50.0352C427.166 50.0586 427.383 50.2227 427.512 50.5273L437.479 72.9219L437.021 53.9551L434.297 53.8672C434.168 53.8672 434.086 53.8379 434.051 53.7793C434.016 53.7207 433.992 53.6211 433.98 53.4805L434.086 50.5625C434.109 50.3164 434.25 50.1934 434.508 50.1934L442.365 50.1582C442.494 50.1699 442.576 50.2051 442.611 50.2637C442.646 50.3105 442.67 50.4102 442.682 50.5625L442.91 53.709ZM456.85 66.5234C456.58 66.4766 456.445 66.3535 456.445 66.1543L456.516 63.0254C456.516 62.791 456.668 62.6621 456.973 62.6387L465.533 62.0762C465.967 62.0996 466.195 62.3457 466.219 62.8145L466.131 65.8379C466.131 65.9668 466.096 66.0664 466.025 66.1367C465.955 66.207 465.885 66.2422 465.814 66.2422L464.9 66.2773L465.217 76.7363C465.193 77.0645 465.041 77.2285 464.76 77.2285C464.104 77.2285 462.996 76.8242 461.438 76.0156C459.855 76.9297 458.145 77.3867 456.305 77.3867C454.477 77.3867 452.918 77.1172 451.629 76.5781C450.34 76.0273 449.262 75.1719 448.395 74.0117C446.613 71.668 445.723 68.0352 445.723 63.1133C445.723 56.2461 447.656 52.0859 451.523 50.6328C452.754 50.1641 454.131 49.9297 455.654 49.9297C457.834 49.9297 459.621 50.498 461.016 51.6348L461.367 49.5078C461.402 49.2148 461.531 49.0625 461.754 49.0508L464.514 48.8047C464.795 48.8047 464.936 48.9395 464.936 49.209L465.129 55.6426C465.129 55.8652 465.012 55.9941 464.777 56.0293L461.438 56.4863C460.723 55.5371 460.09 54.8926 459.539 54.5527C458.555 53.9434 457.541 53.6387 456.498 53.6387C455.455 53.6387 454.5 53.7852 453.633 54.0781C452.777 54.3711 452.045 54.8809 451.436 55.6074C450.158 57.1309 449.52 59.6562 449.52 63.1836C449.52 68.8672 450.949 72.1895 453.809 73.1504C454.711 73.4551 455.812 73.6074 457.113 73.6074C458.414 73.6074 459.779 73.3496 461.209 72.834L461.121 66.4004L456.85 66.5234ZM479.877 54.2363C479.549 54.2363 479.385 54.0488 479.385 53.6738L479.561 50.7207C479.572 50.5215 479.613 50.3984 479.684 50.3516C479.766 50.293 479.906 50.2578 480.105 50.2461L488.244 49.8945C488.443 49.9062 488.561 49.959 488.596 50.0527C488.631 50.1348 488.654 50.2578 488.666 50.4219L488.842 53.3398C488.818 53.5391 488.771 53.6738 488.701 53.7441C488.631 53.8027 488.502 53.832 488.314 53.832L485.484 53.7969L489.457 71.3223L493.676 50.791C493.711 50.5566 493.852 50.4336 494.098 50.4219L496.752 50.2285C496.998 50.252 497.145 50.3867 497.191 50.6328L501.814 71.3926L505.312 53.7441L502.605 53.6738C502.465 53.6738 502.365 53.6445 502.307 53.5859C502.26 53.5273 502.225 53.4219 502.201 53.2695L502.289 50.4219C502.312 50.0938 502.488 49.918 502.816 49.8945L510.656 50.123C510.914 50.1465 511.043 50.334 511.043 50.6855L510.867 53.4453C510.855 53.6328 510.814 53.7617 510.744 53.832C510.674 53.9023 510.539 53.9434 510.34 53.9551L508.652 53.8848L503.168 76.6309C503.121 76.8535 502.98 76.9766 502.746 77L499.986 77.1406C499.74 77.1172 499.594 76.9824 499.547 76.7363L495.205 58.0156L491.109 76.6309C491.062 76.8535 490.922 76.9766 490.688 77L487.752 77.1406C487.541 77.1289 487.395 76.9941 487.312 76.7363L481.529 54.0781L479.877 54.2363ZM521.713 73.3086C521.9 73.3086 521.994 73.4199 521.994 73.6426L521.941 76.7715C521.941 77.0059 521.801 77.123 521.52 77.123L513.363 76.8945C513.164 76.8945 513.059 76.7539 513.047 76.4727L512.906 73.3613C512.93 73.1738 513.023 73.0625 513.188 73.0273L515.631 73.2031L515.49 54.0605L513.082 54.043C512.871 54.043 512.766 53.9141 512.766 53.6562L513.047 50.5625C513.059 50.4219 513.094 50.334 513.152 50.2988C513.223 50.252 513.328 50.2168 513.469 50.1934L521.678 50.5098C521.807 50.5215 521.889 50.5566 521.924 50.6152C521.959 50.6621 521.982 50.7617 521.994 50.9141L521.871 53.709C521.848 53.9668 521.713 54.0957 521.467 54.0957H519.41L519.357 73.3086H521.713ZM525.404 58.5605C525.205 58.5371 525.082 58.3965 525.035 58.1387L525.193 49.8945C525.193 49.6836 525.328 49.5781 525.598 49.5781L528.48 49.9297C528.715 49.9297 528.832 50.0645 528.832 50.334V50.791L542.314 50.6504L545.549 50.2988C545.807 50.2988 545.936 50.4277 545.936 50.6855L545.408 58.4727C545.385 58.6602 545.273 58.7539 545.074 58.7539L542.068 58.6133C541.928 58.5898 541.834 58.5547 541.787 58.5078C541.752 58.4492 541.729 58.3438 541.717 58.1914L541.77 53.8496L537.234 53.9199L537.533 73.0449L540.926 72.8516C541.113 72.8984 541.207 73.0098 541.207 73.1855L541.242 76.2969C541.219 76.5781 541.113 76.7188 540.926 76.7188L530.484 76.9473C530.227 76.9473 530.086 76.8301 530.062 76.5957L530.186 73.1152C530.186 72.8926 530.279 72.7812 530.467 72.7812L533.596 72.9746L533.279 54.0254L528.85 54.2715L528.867 57.998C528.855 58.2207 528.715 58.3379 528.445 58.3496L525.404 58.5605ZM559.102 72.7812C559.289 72.7812 559.383 72.8926 559.383 73.1152L559.154 76.4199C559.131 76.6543 558.99 76.7715 558.732 76.7715L550.576 76.8945C550.377 76.8945 550.271 76.7539 550.26 76.4727L550.295 73.3613C550.295 73.1855 550.389 73.0742 550.576 73.0273L552.457 73.0801V54.0781L550.119 54.0957C549.99 54.0957 549.908 54.0664 549.873 54.0078C549.838 53.9492 549.814 53.8496 549.803 53.709L549.645 50.6152C549.656 50.4746 549.691 50.3867 549.75 50.3516C549.82 50.3047 549.926 50.2695 550.066 50.2461L558.838 50.3867C559.049 50.4102 559.154 50.5449 559.154 50.791L559.084 53.8848C559.084 54.1426 558.949 54.2715 558.68 54.2715L556.377 54.1484L556.359 61.918L565.887 61.7949V53.7617L563.479 53.6914C563.35 53.6914 563.268 53.6621 563.232 53.6035C563.197 53.5449 563.174 53.4453 563.162 53.3047L563.268 50.3867C563.291 50.1406 563.432 50.0176 563.689 50.0176L571.898 49.9824C572.027 49.9941 572.109 50.0293 572.145 50.0879C572.18 50.1348 572.203 50.2344 572.215 50.3867L572.443 53.5332C572.443 53.791 572.309 53.9199 572.039 53.9199L569.807 53.8672L569.754 73.3965L572.461 73.3086C572.648 73.3086 572.742 73.4199 572.742 73.6426L572.514 76.7715C572.49 77.0059 572.35 77.123 572.092 77.123L563.76 76.8945C563.561 76.8945 563.455 76.7539 563.443 76.4727L563.479 73.5371C563.479 73.3613 563.572 73.25 563.76 73.2031L565.887 73.3613V65.3457L556.342 65.416L556.324 72.9746L559.102 72.7812Z" fill="white"/>
<path d="M605.455 50.1055C605.924 50.1055 606.17 50.334 606.193 50.791L605.982 58.4551C605.982 58.7598 605.854 58.9121 605.596 58.9121L602.643 58.9824C602.42 58.9824 602.297 58.8477 602.273 58.5781L601.904 54.0605C600.475 53.709 599.156 53.5332 597.949 53.5332C596.742 53.5332 595.723 53.7148 594.891 54.0781C594.059 54.4297 593.373 55.0039 592.834 55.8008C591.791 57.3477 591.27 59.9316 591.27 63.5527C591.27 69.0254 592.594 72.3008 595.242 73.3789C596.109 73.7305 597.164 73.9062 598.406 73.9062C599.648 73.9062 600.961 73.6836 602.344 73.2383L602.256 70.8828C602.279 70.6719 602.42 70.543 602.678 70.4961L605.596 70.0039C605.795 70.0039 605.918 70.1387 605.965 70.4082L606.668 77.2637C606.668 77.4512 606.533 77.5566 606.264 77.5801L603.24 77.8438C602.771 77.8438 602.525 77.6152 602.502 77.1582L602.467 76.4199C600.838 77.2871 599.115 77.7207 597.299 77.7207C595.494 77.7207 593.971 77.4102 592.729 76.7891C591.498 76.168 590.467 75.2539 589.635 74.0469C587.959 71.5977 587.121 68.0352 587.121 63.3594C587.121 58.7188 588.059 55.2734 589.934 53.0234C591.645 50.9609 594.088 49.9297 597.264 49.9297C599.256 49.9297 600.932 50.1523 602.291 50.5977L605.455 50.1055ZM624.281 76.4375C623.297 76.7656 622.055 76.9297 620.555 76.9297C619.055 76.9297 617.273 76.7422 615.211 76.3672L615.334 77.7734C615.334 77.9844 615.199 78.0898 614.93 78.0898L611.906 78.1777C611.461 78.1543 611.215 77.9258 611.168 77.4922L610.5 70.6895C610.5 70.4551 610.641 70.3262 610.922 70.3027L614.367 69.9863C614.59 69.9863 614.713 70.1211 614.736 70.3906L614.965 73.2383C616.652 73.4141 618.334 73.502 620.01 73.502C621.686 73.502 622.857 73.2207 623.525 72.6582C624.193 72.084 624.527 71.2227 624.527 70.0742C624.527 69.043 624.135 68.1992 623.35 67.543C622.939 67.1914 622.406 66.8457 621.75 66.5059L616.934 64.168C615.234 63.3594 614.068 62.7148 613.436 62.2344C612.803 61.7422 612.316 61.2617 611.977 60.793C611.297 59.8438 610.957 58.7305 610.957 57.4531C610.957 56.1641 611.156 55.0684 611.555 54.166C611.953 53.252 612.516 52.4668 613.242 51.8105C614.766 50.416 616.699 49.7188 619.043 49.7188C620.707 49.7188 622.512 49.9824 624.457 50.5098C625.957 50.0527 626.895 49.8242 627.27 49.8242C627.656 49.8242 627.861 49.9824 627.885 50.2988L627.533 57.5938C627.51 57.8633 627.416 57.998 627.252 57.998L624.299 57.8926C624.135 57.8809 624.035 57.8398 624 57.7695C623.965 57.6992 623.941 57.5879 623.93 57.4355L623.789 53.5684C622.395 53.2402 621.234 53.0762 620.309 53.0762C617.977 53.0762 616.389 53.7266 615.545 55.0273C615.24 55.4961 615.088 56.0527 615.088 56.6973C615.088 57.3301 615.24 57.8574 615.545 58.2793C615.85 58.7012 616.289 59.0996 616.863 59.4746C617.438 59.8379 618.141 60.207 618.973 60.582L621.855 61.9004C624.562 63.1543 626.367 64.2734 627.27 65.2578C628.254 66.3242 628.746 67.8184 628.746 69.7402C628.746 73.1973 627.258 75.4297 624.281 76.4375ZM645.305 76.4375C644.32 76.7656 643.078 76.9297 641.578 76.9297C640.078 76.9297 638.297 76.7422 636.234 76.3672L636.357 77.7734C636.357 77.9844 636.223 78.0898 635.953 78.0898L632.93 78.1777C632.484 78.1543 632.238 77.9258 632.191 77.4922L631.523 70.6895C631.523 70.4551 631.664 70.3262 631.945 70.3027L635.391 69.9863C635.613 69.9863 635.736 70.1211 635.76 70.3906L635.988 73.2383C637.676 73.4141 639.357 73.502 641.033 73.502C642.709 73.502 643.881 73.2207 644.549 72.6582C645.217 72.084 645.551 71.2227 645.551 70.0742C645.551 69.043 645.158 68.1992 644.373 67.543C643.963 67.1914 643.43 66.8457 642.773 66.5059L637.957 64.168C636.258 63.3594 635.092 62.7148 634.459 62.2344C633.826 61.7422 633.34 61.2617 633 60.793C632.32 59.8438 631.98 58.7305 631.98 57.4531C631.98 56.1641 632.18 55.0684 632.578 54.166C632.977 53.252 633.539 52.4668 634.266 51.8105C635.789 50.416 637.723 49.7188 640.066 49.7188C641.73 49.7188 643.535 49.9824 645.48 50.5098C646.98 50.0527 647.918 49.8242 648.293 49.8242C648.68 49.8242 648.885 49.9824 648.908 50.2988L648.557 57.5938C648.533 57.8633 648.439 57.998 648.275 57.998L645.322 57.8926C645.158 57.8809 645.059 57.8398 645.023 57.7695C644.988 57.6992 644.965 57.5879 644.953 57.4355L644.812 53.5684C643.418 53.2402 642.258 53.0762 641.332 53.0762C639 53.0762 637.412 53.7266 636.568 55.0273C636.264 55.4961 636.111 56.0527 636.111 56.6973C636.111 57.3301 636.264 57.8574 636.568 58.2793C636.873 58.7012 637.312 59.0996 637.887 59.4746C638.461 59.8379 639.164 60.207 639.996 60.582L642.879 61.9004C645.586 63.1543 647.391 64.2734 648.293 65.2578C649.277 66.3242 649.77 67.8184 649.77 69.7402C649.77 73.1973 648.281 75.4297 645.305 76.4375Z" fill="#06D6A0"/>
<rect x="300" y="86" width="167" height="5" fill="#06D6A0"/>
</svg>
